<?xml version="1.0" encoding="UTF-8"?>
<svg width="184px" height="48px" viewBox="0 0 184 48" version="1.1" xmlns="http://www.w3.org/2000/svg" xmlns:xlink="http://www.w3.org/1999/xlink">
    <!-- Generator: Sketch 50.2 (55047) - http://www.bohemiancoding.com/sketch -->
    <title>mimir-logotype-reverse-no-padding</title>
    <desc>Created with Sketch.</desc>
    <defs></defs>
    <g id="Page-1" stroke="none" stroke-width="1" fill="none" fill-rule="evenodd">
        <g id="mimir-logotype-reverse" transform="translate(-24.000000, -24.000000)" fill="#000000">
            <g id="mimir-logotype-reverse-no-padding" transform="translate(24.000000, 24.000000)">
                <path d="M31.2239148,13.8306911 C33.4767148,11.6109578 35.6399148,9.47762447 37.8031148,7.3453578 C39.0863148,6.08029113 40.3567148,4.80242447 41.6537814,3.55122447 C46.9967148,-1.60077553 55.4809814,-0.937308867 59.9247148,4.99869113 C61.4553814,7.0445578 62.3065814,9.34749113 62.3033814,11.9426911 C62.2927148,19.8445578 62.3193814,27.7464245 62.2916481,35.6472245 C62.2756481,40.5794911 59.3039148,44.8909578 54.7300481,46.7480245 C50.1764481,48.5965578 45.0041814,47.5565578 41.5641814,44.0642911 C41.1812481,43.6760245 40.9561814,43.1320245 40.5839148,42.5442911 C37.9449814,45.9320245 35.0052481,47.6440245 31.1375148,47.6344245 C27.3273814,47.6237578 24.4601814,45.8562911 21.9492481,42.6829578 C21.5449814,43.2418911 21.3039148,43.7037578 20.9476481,44.0450911 C17.1396481,47.7005578 12.6745814,48.6050911 7.79031477,46.7938911 C3.07991477,45.0477578 0.0836481071,40.5442911 0.0569814404,35.4968245 C0.0175147738,27.7346911 -0.0614185596,19.9693578 0.0847147738,12.2093578 C0.18178144,7.0573578 2.66711477,3.1757578 7.45431477,1.11389113 C12.2884481,-0.969308867 16.8047148,-0.0978422008 20.6575148,3.4541578 C23.6463148,6.20829113 26.4452481,9.1661578 29.3327148,12.0280245 C29.9151148,12.6050911 30.5188481,13.1597578 31.2239148,13.8306911 M28.0815148,16.7682911 C27.9311148,16.5698911 27.8148481,16.3746911 27.6591148,16.2200245 C24.4441814,13.0296245 21.2356481,9.83282447 18.0015148,6.66162447 C15.5460481,4.2541578 12.1785814,3.5405578 9.18871477,4.89629113 C5.98764811,6.3469578 4.30124811,8.8781578 4.29698144,12.4354911 C4.28631477,20.2008245 4.29058144,27.9661578 4.30124811,35.7325578 C4.30124811,36.2808245 4.33538144,36.8461578 4.46871477,37.3752245 C5.42018144,41.1544245 8.61911477,43.6184245 12.4612481,43.5682911 C16.2436481,43.5192245 19.3295148,40.9165578 20.1956481,36.8877578 C20.4719148,35.6045578 21.0799148,34.8685578 22.3577814,34.7928245 C23.4767148,34.7266911 24.2628481,35.6237578 24.4921814,37.0882911 C24.5273814,37.3154911 24.5231148,37.5490911 24.5529814,37.7784245 C25.0436481,41.5906911 28.9465814,44.2712245 32.6724481,43.3570911 C35.7892481,42.5933578 37.5759148,40.4696245 38.0100481,36.9154911 C38.1604481,35.6781578 38.7780481,34.8941578 39.9940481,34.8152245 C41.2239148,34.7341578 41.9471148,35.4818911 42.2265814,36.6626911 C42.3535148,37.1992245 42.4303148,37.7570911 42.6308481,38.2658911 C44.0111148,41.7709578 47.8169814,44.0685578 51.2025814,43.4690911 C55.4308481,42.7202911 58.1679148,39.6536245 58.2148481,35.2802911 C58.2959148,27.6536245 58.3055148,20.0258911 58.2084481,12.4002911 C58.1625814,8.87069113 56.4868481,6.17309113 53.1140481,4.8461578 C49.8831148,3.5757578 46.9561814,4.2413578 44.4548481,6.67549113 C42.9647148,8.12509113 41.4617814,9.5629578 39.9823148,11.0253578 C38.0868481,12.8984245 36.2095148,14.7917578 34.4708481,16.5282911 C36.1721814,18.2637578 37.7679148,19.8925578 39.6377814,21.8008245 C42.4548481,18.8792245 45.3156481,15.9320245 48.1476481,12.9570911 C48.9465814,12.1165578 49.8276481,11.5970911 50.9679148,12.0653578 C52.0772481,12.5197578 52.2521814,13.5309578 52.2511148,14.6050911 C52.2457814,21.3538911 52.2447148,28.1026911 52.2521814,34.8504245 C52.2532481,35.9224245 52.0943148,36.8973578 50.9785814,37.3912245 C49.7753814,37.9234911 48.9711148,37.2536245 48.1860481,36.4664245 C45.6068481,33.8818911 43.0148481,31.3101578 40.4239148,28.7373578 C40.0729814,28.3896245 39.6964481,28.0685578 39.2729814,27.6802911 C38.8079148,28.1069578 38.4281814,28.4344245 38.0708481,28.7853578 C36.3545814,30.4674911 34.6553814,32.1666911 32.9284481,33.8381578 C31.7497814,34.9794911 30.7236481,35.0050911 29.5428481,33.8904245 C28.1977814,32.6221578 26.9060481,31.2984245 25.5865814,30.0034911 C24.8089814,29.2408245 24.0228481,28.4877578 23.1919148,27.6845578 C22.6788481,28.1698911 22.3065814,28.5090911 21.9492481,28.8632245 C19.3583148,31.4338911 16.7631148,34.0024245 14.1839148,36.5869578 C13.4564481,37.3144245 12.6873814,37.8637578 11.6121814,37.4381578 C10.4964481,36.9954911 10.2553814,36.0888245 10.2596481,34.9688245 C10.2873814,28.1741578 10.2852481,21.3794911 10.2617814,14.5848245 C10.2575148,13.4818911 10.4441814,12.5389578 11.5641814,12.0834911 C12.6884481,11.6258911 13.5012481,12.2018911 14.2628481,12.9592245 C16.7204481,15.4040245 19.1897814,17.8370911 21.6591148,20.2690911 C22.1401814,20.7437578 22.6404481,21.1970911 23.1449814,21.6717578 C24.8516481,19.9757578 26.4452481,18.3938911 28.0815148,16.7682911 M26.3897814,24.8162911 C27.8233814,26.2648245 29.2303148,27.7240245 30.6959148,29.1202911 C30.8857814,29.3016245 31.5268481,29.3176245 31.7124481,29.1458911 C33.2217814,27.7368245 34.6724481,26.2648245 35.9855148,24.9677578 C34.3631148,23.1896245 32.8249814,21.5021578 31.2836481,19.8125578 C29.6121814,21.5224245 28.0409814,23.1277578 26.3897814,24.8162911 M14.4996481,19.0648245 L14.4996481,30.3597578 C16.4409814,28.4514911 18.1145814,26.8269578 19.7497814,25.1629578 C19.9012481,25.0082911 19.9353814,24.4792245 19.8009814,24.3416245 C18.1455148,22.6456245 16.4484481,20.9901578 14.4996481,19.0648245 M47.9012481,30.1314911 L47.9012481,19.2941578 C45.9791148,21.2258911 44.2116481,23.0018911 42.6276481,24.5922911 C44.3471148,26.3981578 46.0527148,28.1890911 47.9012481,30.1314911" id="Fill-164"></path>
                <polygon id="Fill-166" points="101.44 27.8762667 107.165867 12.8 116.516267 12.8 116.516267 38.1685333 109.629867 38.1685333 109.629867 22.7296 104.738133 38.1685333 98.1781333 38.1685333 93.3216 22.7296 93.3216 38.1685333 86.4 38.1685333 86.4 12.8 95.7866667 12.8"></polygon>
                <path d="M123.2,10.9119792 C125.266133,10.9119792 126.968533,12.3978458 126.968533,14.4277125 C126.968533,16.4202458 125.266133,17.9061125 123.2,17.9061125 C121.133867,17.9061125 119.466667,16.4202458 119.466667,14.4277125 C119.466667,12.3978458 121.133867,10.9119792 123.2,10.9119792 Z M119.685333,38.1653125 L126.715733,38.1653125 L126.715733,19.0293125 L119.685333,19.0293125 L119.685333,38.1653125 Z" id="Fill-167"></path>
                <path d="M158.328533,38.1674927 L151.298133,38.1674927 L151.298133,26.752026 C151.298133,25.555226 150.5728,24.758426 149.4496,24.758426 C148.3616,24.758426 147.709867,25.6277594 147.709867,26.752026 L147.709867,38.1674927 L140.715733,38.1674927 L140.715733,26.896026 C140.715733,25.555226 140.062933,24.758426 138.903467,24.758426 C137.816533,24.758426 137.163733,25.4101594 137.163733,26.787226 L137.163733,38.1674927 L130.133333,38.1674927 L130.133333,19.0314927 L136.9824,19.0314927 L136.9824,20.8437594 C137.6352,19.8293594 139.048533,18.560026 141.621333,18.560026 C143.722667,18.560026 145.354667,19.3941594 146.4416,20.8074927 C147.601067,19.5029594 149.3056,18.560026 151.768533,18.560026 C156.1184,18.560026 158.328533,21.859226 158.328533,25.8453594 L158.328533,38.1674927 Z" id="Fill-169"></path>
                <path d="M164.8,10.9119792 C166.866133,10.9119792 168.568533,12.3978458 168.568533,14.4277125 C168.568533,16.4202458 166.866133,17.9061125 164.8,17.9061125 C162.733867,17.9061125 161.066667,16.4202458 161.066667,14.4277125 C161.066667,12.3978458 162.733867,10.9119792 164.8,10.9119792 Z M161.284267,38.1653125 L168.314667,38.1653125 L168.314667,19.0293125 L161.284267,19.0293125 L161.284267,38.1653125 Z" id="Fill-171"></path>
                <path d="M183.547733,25.4101594 C183.293867,25.337626 182.894933,25.2650927 182.424533,25.2650927 C180.068267,25.2650927 178.763733,26.7509594 178.763733,29.2522927 L178.763733,38.1674927 L171.733333,38.1674927 L171.733333,19.0314927 L178.5824,19.0314927 L178.5824,21.4602927 C179.524267,19.648026 181.4816,18.560026 183.547733,18.560026 L183.547733,25.4101594 Z" id="Fill-173"></path>
            </g>
        </g>
    </g>
</svg>