<?xml version="1.0" encoding="utf-8"?>
<!-- Generator: Adobe Illustrator 22.0.0, SVG Export Plug-In . SVG Version: 6.00 Build 0)  -->
<svg version="1.1" id="Layer_1" xmlns="http://www.w3.org/2000/svg" xmlns:xlink="http://www.w3.org/1999/xlink" x="0px" y="0px"
	 viewBox="0 0 458.8 217.2" style="enable-background:new 0 0 458.8 217.2;" xml:space="preserve">
<style type="text/css">
</style>
<title>anvil_1</title>
<g id="Layer_2_1_">
	<g id="Layer_1-2">
		<path class="anvil-logo-path" d="M446.7,0.2c-1.8-0.2-3.7-0.2-5.5,0H146.7c-2.7,2.1-5,4.7-6.7,7.6c-3.4,6.1-9.2,8.3-16,8.3
			c-36.7,0-73.3,0.3-110-0.2c-11.3-0.2-17.1,7-12.3,18.6c14.8,36.2,41.9,55.1,80,59.8c18.3,2.3,36.9,2.4,55.1,5.8
			c5.4,0.9,10.7,2.5,15.7,4.8c16.8,7.7,26.3,27.5,22,45.4c-1.8,7.5-6.4,14.5-13,18.4c-13.5,8-30.3-3.6-40.4,10.7
			c-4.7,6.7-9.6,13.2-14.1,20c-2.6,3.9-3.4,8-1.1,12.2c2.2,4.1,6,5.5,10.5,5.5c20.5,0,41,0,61.5,0c4.5,0,8.2-1.6,10.5-5.5
			c4.4-7.6,10.8-10,19.6-9.8c28.6,0.5,57.3,0.4,86,0.1c6.6-0.1,11.4,2.1,14.6,7.6c3.4,5.9,8.3,7.8,15,7.7c17-0.3,34-0.1,51-0.1
			c10.9,0,15.3-6.6,11.3-16.8c-2.9-7.4-6.3-14.7-10.1-21.7c-4.4-8.1-11-6.9-19.2-6.3c-15,1-32.8-3.4-43-15.2
			c-9.6-11.2-9.5-26.6-4.5-39.8c5.2-13.5,14.5-23.8,25.4-32.9c19.3-16.2,41.5-27.6,64.4-37.7c9.9-4.3,19.8-8.4,29.9-12
			c4.9-1.8,9.9-3.5,14.9-5c3.7-1.1,7.6-2.3,10.8-4.6c1.9-1.3,3.3-3.2,3.9-5.4c1.3-5.2-2.8-11.5-5.9-15.3c-1-1.4-2.3-2.6-3.7-3.5
			C448.2,0.5,447.5,0.3,446.7,0.2z"/>
	</g>
</g>
</svg>
