<?xml version="1.0" encoding="UTF-8"?>
<svg width="150px" height="150px" viewBox="0 0 150 150" version="1.1" xmlns="http://www.w3.org/2000/svg" xmlns:xlink="http://www.w3.org/1999/xlink">
    <!-- Generator: Sketch 52.2 (67145) - http://www.bohemiancoding.com/sketch -->
    <title>pattern</title>
    <desc>Created with Sketch.</desc>
    <defs>
        <filter x="-14.0%" y="-14.0%" width="128.0%" height="128.0%" filterUnits="objectBoundingBox" id="filter-1">
            <feOffset dx="0" dy="-2" in="SourceAlpha" result="shadowOffsetOuter1"></feOffset>
            <feGaussianBlur stdDeviation="5" in="shadowOffsetOuter1" result="shadowBlurOuter1"></feGaussianBlur>
            <feColorMatrix values="0 0 0 0 0   0 0 0 0 0   0 0 0 0 0  0 0 0 0.1 0" type="matrix" in="shadowBlurOuter1" result="shadowMatrixOuter1"></feColorMatrix>
            <feMerge>
                <feMergeNode in="shadowMatrixOuter1"></feMergeNode>
                <feMergeNode in="SourceGraphic"></feMergeNode>
            </feMerge>
        </filter>
    </defs>
    <g id="pattern" filter="url(#filter-1)">
        <polygon id="Rectangle" fill="#7AA27E" points="150 100 150 150 100 150"></polygon>
        <polygon id="Rectangle" fill="#5C8461" transform="translate(125.000000, 125.000000) scale(-1, -1) translate(-125.000000, -125.000000) " points="150 100 150 150 100 150"></polygon>
        <polygon id="Rectangle" fill="#446247" points="100 50 100 100 50 100"></polygon>
        <polygon id="Rectangle" fill="#5C8461" points="150 0 150 50 100 50"></polygon>
        <polygon id="Rectangle" fill="#446247" transform="translate(75.000000, 125.000000) scale(-1, 1) translate(-75.000000, -125.000000) " points="100 100 100 150 50 150"></polygon>
        <polygon id="Rectangle" fill="#9CBAA0" transform="translate(75.000000, 125.000000) scale(1, -1) translate(-75.000000, -125.000000) " points="100 100 100 150 50 150"></polygon>
        <polygon id="Rectangle" fill="#7AA27E" transform="translate(125.000000, 75.000000) scale(-1, 1) translate(-125.000000, -75.000000) " points="150 50 150 100 100 100"></polygon>
        <polygon id="Rectangle" fill="#A8C2AB" transform="translate(125.000000, 75.000000) scale(1, -1) translate(-125.000000, -75.000000) " points="150 50 150 100 100 100"></polygon>
        <polygon id="Rectangle" fill="#E2EBE3" points="50 100 50 150 0 150"></polygon>
    </g>
</svg>